inDegrees=no
num_controls=7
num_derivatives=13
num_iterations=210
num_multipliers=7
num_parameters=0
num_slacks=7
num_states=26
objective=0.466845
objective_accelerations=0.004373
objective_balance=0.011907
objective_effort=0.021477
objective_height=0.220399
objective_ligament=0.208689
solver_duration=2553.643955
status=Solve_Succeeded
success=true
DataType=double
version=3
OpenSimVersion=4.5
endheader
time	/jointset/ground_pelvis/pelvis_tilt/value	/jointset/ground_pelvis/pelvis_tx/value	/jointset/ground_pelvis/pelvis_ty/value	/jointset/hip_l/hip_flexion_l/value	/jointset/hip_l/hip_adduction_l/value	/jointset/hip_l/hip_rotation_l/value	/jointset/back/lumbar_extension/value	/jointset/patellofemoral_l/patellar_flexion_l/value	/jointset/knee_l/knee_flexion_l/value	/jointset/knee_l/knee_adduction_l/value	/jointset/knee_l/knee_rotation_l/value	/jointset/ankle_l/ankle_angle_l/value	/jointset/subtalar_l/subtalar_angle_l/value	/jointset/ground_pelvis/pelvis_tilt/speed	/jointset/ground_pelvis/pelvis_tx/speed	/jointset/ground_pelvis/pelvis_ty/speed	/jointset/hip_l/hip_flexion_l/speed	/jointset/hip_l/hip_adduction_l/speed	/jointset/hip_l/hip_rotation_l/speed	/jointset/back/lumbar_extension/speed	/jointset/patellofemoral_l/patellar_flexion_l/speed	/jointset/knee_l/knee_flexion_l/speed	/jointset/knee_l/knee_adduction_l/speed	/jointset/knee_l/knee_rotation_l/speed	/jointset/ankle_l/ankle_angle_l/speed	/jointset/subtalar_l/subtalar_angle_l/speed	/forceset/tau_hip_flexion_l	/forceset/tau_hip_adduction_l	/forceset/tau_hip_rotation_l	/forceset/tau_knee_flexion_l	/forceset/tau_ankle_angle_l	/forceset/tau_subtalar_angle_l	/forceset/tau_lumbar_extension	lambda_cid13_p0	lambda_cid13_p1	lambda_cid13_p2	lambda_cid13_p3	lambda_cid13_p4	lambda_cid13_p5	lambda_cid14_p0	/jointset/ground_pelvis/pelvis_tilt/accel	/jointset/ground_pelvis/pelvis_tx/accel	/jointset/ground_pelvis/pelvis_ty/accel	/jointset/hip_l/hip_flexion_l/accel	/jointset/hip_l/hip_adduction_l/accel	/jointset/hip_l/hip_rotation_l/accel	/jointset/back/lumbar_extension/accel	/jointset/patellofemoral_l/patellar_flexion_l/accel	/jointset/knee_l/knee_flexion_l/accel	/jointset/knee_l/knee_adduction_l/accel	/jointset/knee_l/knee_rotation_l/accel	/jointset/ankle_l/ankle_angle_l/accel	/jointset/subtalar_l/subtalar_angle_l/accel	gamma_cid13_p0	gamma_cid13_p1	gamma_cid13_p2	gamma_cid13_p3	gamma_cid13_p4	gamma_cid13_p5	gamma_cid14_p0
1	0.0737589688686152	0.1427983442371603	0.9485006884584822	-0.03005316426863595	-0.1673394407077993	-0.4254586941883416	-0.3883310957937789	0.001565860555521693	0.001565860555521922	-0.001708704227760572	-0.1736473841129431	0.03794866251070962	0.1551943956161715	0.05019509726138711	0.01034197914799642	0.003621284555908352	-0.07498797934154899	-0.0002063557137916383	-0.006638365131517296	-0.01312186692307816	-0.00780254360717807	-0.007802543607177966	-0.003653892868957362	-0.0006792321935579841	0.01655383137251634	0.007639045859024505	0.009340807567003489	0.01489004161241494	-0.007022166413917326	-0.007930314526028617	-0.04142297129636049	-0.005464342180259625	0.09383749037156079	-59.71217615666364	4.738191152884476	8.031183332576182	12.5220468364553	-704.0661762522288	-76.23562733231	-15.06407899687199	-0.298299071038889	-0.2743045259097943	-0.0224752659246093	0.7808041051353189	-0.02108310992390861	0.1252415369160928	-0.01831175131582589	0.1736780090943691	0.1736780090943694	0.02671079853950321	-0.001299458048840739	-0.3160326541255974	-0.1734253129439169	-3.515337075503725e-11	2.084636508636264e-09	-1.034225371678031e-09	7.532943843468285e-10	3.670778932715393e-09	2.130387967260067e-09	1.853189780281389e-10
1.01	0.07424647485252663	0.1428881655730856	0.9485358245842023	-0.03076496735794137	-0.1673424245253164	-0.4255189479952443	-0.3884634530905822	0.001495951513804435	0.001495951513804997	-0.001743881448470108	-0.17365418934603	0.03809835930936091	0.1552622445622298	0.0473323092274304	0.007631687791113928	0.003408529354781631	-0.06742550495713213	-0.0003818654993562815	-0.005419904431628804	-0.01335278298745574	-0.006204272820574258	-0.006204272820574725	-0.003374531836741156	-0.0006790460822660982	0.01339092276124042	0.00594271900582949	0.009473679709583016	0.01482521284383029	-0.007015566055794588	-0.008073242111350548	-0.0412342325660064	-0.005493806888390977	0.09385354282466664	-59.64999977695315	4.746250053583115	8.022874878607913	12.38418402370097	-704.071840144769	-76.24511135239554	-15.06124452008128	-0.2763372569868477	-0.267981333092311	-0.02028664119999252	0.7360391302585346	-0.01450367437495031	0.1190223059970697	-0.02596011647647792	0.1491503650839488	0.1491503650839407	0.02960186813770005	0.001092675258185513	-0.3156107809216439	-0.16594023157353	-3.814422779666777e-11	2.13394565897403e-09	-1.050493185316674e-09	7.222631139623598e-10	3.457157883416278e-09	2.24439035934253e-09	1.786277168546218e-10
1.02	0.0747061392386162	0.1429511660169391	0.9485689109591122	-0.03140273169836973	-0.1673469071929894	-0.4255672424012537	-0.3885982152645248	0.001441274930281592	0.001441274930281822	-0.001776054436342675	-0.1736609097120959	0.03821658885864083	0.155313489467743	0.04462677769696262	0.004977800733636646	0.003211334393929384	-0.06018022956616895	-0.0005061257450095875	-0.004246484952866617	-0.01360284235094329	-0.004756051968347907	-0.0047560519683479	-0.003053046301526913	-0.0006622587893749092	0.01026038149824162	0.004318237749984966	0.009606551852162207	0.01476038407524571	-0.007008965697672607	-0.008216169696671419	-0.04104549383565234	-0.00552327159652226	0.09386959527777347	-59.5896397194699	4.754690153988795	8.014433479930203	12.26454677410279	-704.0937040158071	-76.2532104555649	-15.05910550516461	-0.2668477703410962	-0.2630236660287559	-0.01936321786971403	0.7173643064445812	-0.01083320194164215	0.1162332926908314	-0.02214041113781825	0.1436680222188779	0.1436680222188778	0.03513569913881891	0.002020778271019886	-0.3095591844702442	-0.1590561934738212	-3.774280081540926e-11	2.132255532292037e-09	-1.057169202133913e-09	6.830491231216233e-10	3.126234534545732e-09	2.348848773349997e-09	1.68173875694268e-10
1.03	0.07513957799583043	0.1429879236877734	0.9486001068690809	-0.03196974467558203	-0.1673523275445084	-0.425604059246461	-0.3887355822481484	0.001400214080259848	0.001400214080260277	-0.001804752485935221	-0.1736673691879625	0.03830365310767212	0.155348893874622	0.04209419347696389	0.002384785825404901	0.003031118244058845	-0.05329322739024266	-0.000563331915570139	-0.003128939343354562	-0.01387717555618898	-0.003498819685024793	-0.003498819685025223	-0.002674889830158188	-0.0006257221067364475	0.007153555819784853	0.002779472300495175	0.009673651096588912	0.01468531347532108	-0.007001796223885892	-0.008376482244121689	-0.04077461259047336	-0.005531733201165426	0.09393416342031946	-59.49941186028207	4.75219711072016	8.003830795183648	12.11274655115003	-704.0956126583284	-76.27570775564561	-15.05756999365046	-0.2414808271926561	-0.2557824158925596	-0.01685966009872628	0.66373893319906	-0.0009724833259462697	0.1077071001605221	-0.03107295257097001	0.110345552561495	0.1103455525614908	0.04090686123013588	0.005057039247979857	-0.3110811029727302	-0.1487626252391569	-3.730675869106004e-11	2.130045004824128e-09	-1.063747343473382e-09	6.437516351333739e-10	2.794114223434661e-09	2.453209799826087e-09	1.57681640860579e-10
1.04	0.07554868749497209	0.1429990828069909	0.9486295988482405	-0.03247001347902852	-0.1673578815894752	-0.4256300622545572	-0.3888758911992952	0.001370444497306021	0.001370444497306193	-0.001829318722795339	-0.173673345911805	0.03835968173123098	0.1553694154460956	0.03976092608242913	-0.0001419095897150621	0.002870548232070276	-0.04683139481302003	-0.0005328644346347623	-0.002083717530677328	-0.0141912358555491	-0.002497798554801328	-0.002497798554801372	-0.002226683755019847	-0.0005657083845855688	0.004053256403754538	0.001341670668901395	0.009740750341015325	0.01461024287539655	-0.006994626750099446	-0.008536794791572164	-0.04050373134529441	-0.00554019480580849	0.09399873156286524	-59.41096166748149	4.750049244141374	7.993134326471441	11.97932269809175	-704.1129073121509	-76.29759325235348	-15.05652536194679	-0.2269844052482997	-0.2497597674064041	-0.01543399029331954	0.632330386703869	0.006701528357543892	0.1017685333238681	-0.03008582996070466	0.09242579159911279	0.09242579159911288	0.04914561989274402	0.00671618617386121	-0.3082539319849585	-0.1388634298946199	-2.85445841301054e-11	2.01136873019952e-09	-1.017996710887667e-09	6.000688629465927e-10	2.457625736207855e-09	2.453330926656232e-09	1.414920782480992e-10
1.05	0.07593544435904757	0.142985323417357	0.948657577852658	-0.0329077146307526	-0.1673627239873292	-0.4256459464949522	-0.3890194796871869	0.001349557153443097	0.001349557153443412	-0.001849046449465063	-0.1736786071071993	0.0383848309256252	0.1553760720862671	0.03762505331758578	-0.002596949485482057	0.00272832935227491	-0.04077954179328928	-0.0004227615569615964	-0.001103984388017688	-0.01453004668698185	-0.001713994948585848	-0.001713994948585863	-0.001706886806210161	-0.0004826642329224534	0.0009843303390251275	7.71365024512978e-06	0.00976756156235622	0.01448306732674178	-0.006983636909749	-0.008761545112522071	-0.04006678303250533	-0.005527864957087363	0.09409955014236757	-59.26486814105937	4.735454851219178	7.976796433160048	11.77997781319754	-704.1075033639037	-76.33869430267329	-15.05584553007823	-0.2016977485612266	-0.2414231621322884	-0.01315391089991812	0.5810068144003585	0.0150927091695597	0.0944477977467163	-0.03631645435731341	0.06620891065211024	0.06620891065211418	0.05519307137317866	0.009678313279081883	-0.3050497319001678	-0.1279535739937291	-1.952221793050688e-11	1.889052900976266e-09	-9.706108041167893e-10	5.562490506286073e-10	2.121000743477433e-09	2.450194556622442e-09	1.251244741425323e-10
1.06	0.07630188068818282	0.1429474042164714	0.9486842270534623	-0.03328701844132086	-0.1673660797480668	-0.4256523589853186	-0.3891665638323175	0.00133547809874634	0.001335478098746502	-0.001863216938847097	-0.1736829219043536	0.03837952330173548	0.1553699308090234	0.03569681909438713	-0.004973871840068241	0.002604587509386269	-0.03515192658185129	-0.0002355370113942667	-0.0001893675249698655	-0.01489036730332408	-0.001136140721596606	-0.001136140721596594	-0.001115236297476511	-0.0003764287365975159	-0.002038107253033795	-0.001217912814115183	0.009794372783696876	0.01435589177808711	-0.006972647069398605	-0.008986295433480508	-0.03962983471971625	-0.005515535108366092	0.09420036872186333	-59.12050674681059	4.721166645658373	7.960406403264621	11.59914416479706	-704.1165378476659	-76.38006752935064	-15.05542231766428	-0.1854566969193615	-0.2341362591702469	-0.01173858291197423	0.5474828250453194	0.02212586193637656	0.08874527740150585	-0.03438778694259743	0.05123591575386534	0.05123591575386546	0.06351633187753866	0.01135445510622548	-0.2989562374508665	-0.1171973190354331	-2.349279080608375e-11	1.821848418040938e-09	-9.166325928755287e-10	5.130087409569642e-10	1.669138935973729e-09	2.514069042376282e-09	1.05502123568887e-10
1.07	0.07664990925592692	0.1428860817888436	0.9487097127276725	-0.03361173897679318	-0.1673671852883963	-0.4256499282797617	-0.3893172289383674	0.001326502360148121	0.001326502360148314	-0.00187096517231028	-0.173686109963594	0.03834435487452235	0.155352128382174	0.03392927856989539	-0.007279845518941884	0.00249401431015075	-0.02982480275587051	2.734236869033225e-05	0.0006659259375628205	-0.01523527511677465	-0.0006619108408322152	-0.0006619108408313938	-0.0004079316933962157	-0.0002624137761864893	-0.004976016545808202	-0.002318865814140467	0.009816746043267901	0.0142113659076044	-0.006960898111462623	-0.009229164666825378	-0.03914476602478401	-0.005492366862918696	0.09429660563353694	-58.95910154924386	4.701258717745433	7.94254600409874	11.40988480670193	-704.1114708593357	-76.43028558144756	-15.05516606035706	-0.1693451244899318	-0.2272126039274041	-0.01049640605005439	0.5204338200329919	0.0303060609752526	0.08248411647487441	-0.03343546005611614	0.04508093095885245	0.04508093095885227	0.07830941313853081	0.01124026382026651	-0.2882739922042782	-0.1029884507184101	-2.815447746225512e-11	1.757575389695395e-09	-8.623037271411627e-10	4.697992558941691e-10	1.211147510662934e-09	2.581507935352868e-09	8.570664818310993e-11
